<?xml version="1.0" encoding="utf-8"?>
<!-- Generator: Adobe Illustrator 16.0.0, SVG Export Plug-In . SVG Version: 6.00 Build 0)  -->
<!DOCTYPE svg PUBLIC "-//W3C//DTD SVG 1.1//EN" "http://www.w3.org/Graphics/SVG/1.1/DTD/svg11.dtd">
<svg version="1.1" id="Layer_1" xmlns="http://www.w3.org/2000/svg" xmlns:xlink="http://www.w3.org/1999/xlink" x="0px" y="0px"
	 width="761.707px" height="116.447px" viewBox="0 0 761.707 116.447" enable-background="new 0 0 761.707 116.447"
	 xml:space="preserve">
<g>
	<rect fill="#BF311A" width="761.707" height="116.447"/>
	<g>
		<path fill="#FFFFFF" d="M38.681,38.713c-1.993-4.854-3.296-6.667-7.017-7.104l-1.56-0.176c-0.608-0.523-0.522-1.731,0.172-2.16
			c2.512,0.167,5.284,0.255,9.009,0.255c3.811,0,6.845-0.088,10.487-0.255c0.604,0.347,0.783,1.637,0.172,2.16l-1.298,0.176
			c-3.297,0.437-3.989,0.955-4.072,1.647c0.171,0.864,1.644,5.544,4.331,12.127c3.99,10.064,7.979,20.021,12.31,29.904
			c2.686-5.722,6.324-14.64,8.317-19.237c2.511-5.9,6.589-15.685,8.062-19.414c0.69-1.82,0.776-2.777,0.776-3.38
			c0-0.608-0.866-1.301-3.901-1.647l-1.555-0.176c-0.609-0.523-0.434-1.813,0.176-2.16c2.421,0.167,5.713,0.255,9.009,0.255
			c2.858,0,5.544-0.088,8.409-0.255c0.604,0.347,0.604,1.731,0.169,2.16l-2.597,0.176c-2.081,0.175-3.38,1.223-4.507,3.034
			c-2.431,4.069-5.808,11.101-9.708,19.927l-4.681,10.665c-3.467,7.97-7.537,18.025-9.009,22.611
			c-0.262,0.181-0.611,0.266-0.956,0.266c-0.436,0-0.863-0.085-1.299-0.266c-0.956-3.63-2.515-7.883-3.986-11.517L38.681,38.713z"/>
		<path fill="#FFFFFF" d="M165.021,74.342c-1.731,4.407-3.986,7.53-5.717,8.576c-1.392,0.77-3.211,1.124-10.575,1.124
			c-6.842,0-8.494-1.038-9.446-1.989c-1.56-1.66-1.821-3.905-1.821-9.365V42.525c0-9.099,0.176-10.48,5.289-10.916l2.074-0.174
			c0.522-0.341,0.352-1.904-0.172-2.162c-4.33,0.169-7.274,0.258-10.659,0.258c-3.463,0-6.411-0.089-11.268-0.258
			c-0.514,0.258-0.69,1.821-0.167,2.162l2.164,0.174c5.458,0.436,5.632,1.817,5.632,10.916v31.203c0,2.504,0.131,5.157-0.367,7.639
			c-0.615,3.07-4.692,3.788-7.235,2.977c-1.012-0.326-2.016-0.887-2.707-1.698c-0.739-0.866-1.202-1.915-1.662-2.952
			c-0.641-1.411-1.127-2.858-1.628-4.323l-11.868-34.841c-1.298-3.808-2.685-7.794-3.813-11.609c-0.173-0.606-0.781-0.779-1.3-0.779
			c-0.951,1.133-2.431,2.689-4.509,3.295c0.261,1.391-0.263,3.037-1.473,6.157L84.95,60.98c-3.637,9.716-6.064,15.35-7.622,19.333
			c-1.213,3.118-3.115,4.079-5.199,4.246l-2.861,0.266c-0.521,0.429-0.345,1.813,0.174,2.162c2.34-0.092,5.461-0.257,8.319-0.257
			c4.076,0.087,6.757,0.087,9.014,0.257c0.78-0.35,0.78-1.733,0.174-2.162l-2.861-0.266c-2.079-0.167-2.512-0.699-2.512-1.732
			c0-0.955,0.609-3.286,1.907-7.192l3.03-9.096c0.606-1.824,1.128-2.081,3.297-2.081h13.085c2.602,0,2.949,0.257,3.555,2.163
			l3.809,11.783c0.694,2.079,1.125,3.648,1.125,4.6c0,0.856-1.211,1.389-3.027,1.556l-2.512,0.266
			c-0.609,0.429-0.525,1.813,0.171,2.162c2.514-0.092,5.806-0.257,9.965-0.257c2.854,0,5.7,0.101,8.55,0.134
			c3.156,0.021,6.312-0.134,9.464-0.134h7.973c8.928,0,17.157,0.087,21.58,0.257c1.213-2.337,3.639-11.179,3.639-12.136
			C167.185,74.251,165.543,73.896,165.021,74.342 M101.77,60.98H91.104c-2.427,0-2.51-0.08-1.811-2.069l5.458-15.085
			c0.954-2.6,1.813-4.681,2.074-5.11h0.174c0.524,1.045,1.301,3.375,2,5.456l4.678,14.121C104.45,60.643,104.283,60.98,101.77,60.98
			"/>
		<path fill="#FFFFFF" d="M174.891,42.525c0-9.01-0.171-10.316-5.284-10.916l-1.383-0.176c-0.524-0.343-0.354-1.905,0.169-2.16
			c3.726,0.167,6.667,0.255,10.223,0.255h16.296c5.544,0,10.654,0,11.696-0.255c0.523,1.467,1.042,7.705,1.394,11.521
			c-0.352,0.523-1.745,0.694-2.165,0.174c-1.303-4.069-2.092-7.108-6.592-8.232c-1.821-0.432-4.595-0.526-8.41-0.526h-6.235
			c-2.6,0-2.6,0.181-2.6,3.472v17.328c0,2.439,0.262,2.439,2.861,2.439h5.023c3.641,0,6.325-0.181,7.368-0.52
			c1.036-0.358,1.646-0.876,2.073-3.039l0.694-3.557c0.436-0.521,1.908-0.521,2.26,0.086c0,2.079-0.352,5.46-0.352,8.757
			c0,3.114,0.352,6.411,0.352,8.319c-0.352,0.604-1.824,0.604-2.26,0.081l-0.775-3.373c-0.347-1.561-0.956-2.859-2.691-3.292
			c-1.209-0.351-3.292-0.434-6.669-0.434h-5.023c-2.6,0-2.861,0.083-2.861,2.332v12.229c0,4.586,0.262,7.535,1.644,9.008
			c1.039,1.037,2.859,1.995,10.486,1.995c6.676,0,9.187-0.354,11.099-1.304c1.552-0.866,3.896-3.897,6.142-8.396
			c0.613-0.446,1.83-0.178,2.168,0.599c-0.604,3.032-2.771,9.71-3.891,12.044c-7.805-0.161-15.518-0.254-23.23-0.254h-7.801
			c-3.725,0-6.671,0.093-11.786,0.254c-0.515-0.254-0.692-1.644-0.167-2.159l2.858-0.266c4.938-0.434,5.37-1.732,5.37-10.831V42.525
			z"/>
		<path fill="#FFFFFF" d="M263.228,71.998c0,2.599,0.11,12.35,0.271,15.32c-0.178,0.525-0.645,0.928-1.966,1.009
			c-0.324,0.021-8.04-10.743-8.707-11.673c-1.756-2.457-3.811-5.027-5.654-7.42c-5.916-7.663-6.452-8.027-12.451-15.621
			c-3.448-4.362-7.046-8.676-10.328-13.167h-0.167c-0.348,1.048-0.438,3.035-0.438,5.634v18.893c0,4.077,0.09,15.338,1.561,17.94
			c0.519,0.95,2.254,1.477,4.416,1.646l2.689,0.263c0.519,0.692,0.436,1.735-0.171,2.165c-3.902-0.164-6.935-0.259-10.139-0.259
			c-3.641,0-5.981,0.095-9.012,0.259c-0.608-0.43-0.694-1.644-0.175-2.165l2.34-0.263c1.99-0.257,3.379-0.78,3.813-1.732
			c1.218-3.128,1.124-13.692,1.124-17.854V39.934c0-2.432-0.085-4.253-1.902-6.245c-1.213-1.21-3.297-1.813-5.374-2.079
			l-1.475-0.174c-0.519-0.525-0.519-1.815,0.171-2.167c3.644,0.26,8.918,0.341,10.479,0.341c1.384,0,2.858-0.088,3.983-0.259
			c1.733,4.416,4.705,7.483,9.841,14.55l10.481,13.478c5.773,7.49,8.669,11.459,12.744,15.616l0.115-0.258
			c0.346-0.432,0.399-1.56,0.399-3.379l-0.022-18.076c0-4.071-0.085-15.34-1.733-17.938c-0.517-0.779-1.905-1.298-5.373-1.734
			l-1.47-0.174c-0.609-0.525-0.523-1.907,0.171-2.167c3.991,0.172,6.933,0.26,10.227,0.26c3.725,0,5.979-0.088,8.924-0.26
			c0.694,0.428,0.694,1.642,0.176,2.167l-1.213,0.174c-2.773,0.437-4.51,1.125-4.854,1.814c-1.472,3.127-1.301,13.873-1.301,17.857
			V71.998z"/>
		<path fill="#FFFFFF" d="M278.45,35.506c6.326-4.934,14.384-7.365,23.397-7.365c4.677,0,11.265,0.955,15.345,2.08
			c1.037,0.259,1.641,0.438,2.424,0.352c0.088,1.992,0.521,7.454,1.208,12.738c-0.431,0.604-1.733,0.689-2.333,0.171
			c-1.299-5.889-5.208-12.651-17.771-12.651c-13.262,0-24.527,8.404-24.527,26.346c0,18.194,11.53,28.249,25.74,28.249
			c11.179,0,16.119-7.277,18.115-12.386c0.606-0.443,1.907-0.271,2.253,0.339c-0.614,4.504-2.863,10.225-4.16,11.876
			c-1.039,0.171-2.085,0.521-3.032,0.869c-1.907,0.694-8.148,1.989-13.694,1.989c-7.804,0-15.254-1.555-21.583-5.806
			c-6.93-4.764-12.298-12.66-12.298-23.829C267.534,48.855,271.862,40.623,278.45,35.506"/>
		<path fill="#FFFFFF" d="M397.248,84.825l-2.341-0.266c-3.722-0.434-4.849-1.732-7.365-9.189l-11.867-34.841
			c-1.304-3.808-2.689-7.794-3.817-11.609c-0.171-0.606-0.781-0.779-1.296-0.779c-0.963,1.133-2.431,2.689-4.511,3.295
			c0.259,1.391-0.264,3.037-1.473,6.157l-8.84,23.388c-3.637,9.716-6.063,15.35-7.627,19.333c-0.465,1.188-1.169,2.321-2.164,3.125
			c-1.082,0.872-2.403,1.107-3.766,0.985c-1.134-0.104-2.358-0.254-3.213-1.085c-0.815-0.801-1.111-1.981-1.263-3.067
			c-0.085-0.631-0.114-1.273-0.16-1.908c-0.104-1.609-0.092-3.206-0.092-4.804V42.696c0-9.181,0.174-10.651,5.286-11.087
			l2.169-0.174c0.519-0.341,0.345-1.904-0.173-2.162c-4.336,0.169-7.282,0.258-10.743,0.258c-3.647,0-6.593-0.089-10.926-0.258
			c-0.519,0.258-0.692,1.821-0.171,2.162l2.169,0.174c5.108,0.436,5.28,1.906,5.28,11.087V73.56c0,9.183-0.172,10.389-5.28,11
			l-2.169,0.266c-0.521,0.516-0.348,1.905,0.171,2.162c4.333-0.17,7.278-0.257,10.926-0.257c3.326,0,6.653,0.147,9.979,0.1
			c1.52-0.021,3.048-0.139,4.572-0.1c4.073,0.087,6.761,0.087,9.014,0.257c0.782-0.35,0.782-1.733,0.176-2.162l-2.858-0.266
			c-2.084-0.167-2.517-0.699-2.517-1.732c0-0.955,0.608-3.286,1.907-7.192l3.03-9.096c0.609-1.824,1.128-2.081,3.297-2.081h13.087
			c2.6,0,2.944,0.257,3.551,2.163l3.814,11.783c0.695,2.079,1.128,3.648,1.128,4.6c0,0.856-1.218,1.389-3.034,1.556l-2.515,0.266
			c-0.606,0.429-0.519,1.813,0.172,2.162c2.514-0.092,5.807-0.257,9.968-0.257c3.899,0,6.934,0.087,10.484,0.257
			C397.684,86.638,397.857,85.254,397.248,84.825 M372.555,60.98h-10.669c-2.421,0-2.504-0.08-1.816-2.069l5.465-15.085
			c0.946-2.6,1.817-4.681,2.079-5.11h0.176c0.514,1.045,1.296,3.375,1.988,5.456l4.683,14.121
			C375.242,60.643,375.066,60.98,372.555,60.98"/>
		<path fill="#FDB913" d="M531.371,74.407c-1.748,4.471-4.025,7.618-5.774,8.666c-1.404,0.79-3.244,1.144-10.685,1.144
			c-6.918,0-8.587-1.05-9.548-2.016c-1.576-1.666-1.837-3.945-1.837-9.461V42.267c0-9.194,0.175-10.595,5.346-11.032l2.097-0.175
			c0.527-0.354,0.352-1.931-0.177-2.187c-4.378,0.168-7.354,0.256-10.768,0.256c-3.502,0-6.483-0.088-11.385-0.256
			c-0.523,0.256-0.703,1.833-0.176,2.187l2.187,0.175c5.52,0.438,5.697,1.838,5.697,11.032v31.529
			c0,9.188-0.178,10.421-5.255,10.942l-2.629,0.261c-0.527,0.526-0.348,1.928,0.176,2.192c4.901-0.17,7.708-0.265,11.385-0.265
			h8.054c9.019,0,17.337,0.095,21.806,0.265c1.227-2.366,3.676-11.294,3.676-12.26C533.561,74.318,531.905,73.973,531.371,74.407"/>
		<path fill="#FDB913" d="M381.132,46.256c3.614-10.704,12.749-15.811,23.108-15.811c12.703,0,16.643,6.829,17.955,12.789
			c0.612,0.52,1.929,0.437,2.367-0.177c-0.703-5.344-1.139-10.862-1.23-12.878c-0.785,0.091-1.396-0.088-2.449-0.348
			c-4.115-1.143-10.772-2.096-15.5-2.096c-9.108,0-17.254,2.443-23.647,7.439c-1.218,0.949-2.324,2.029-3.378,3.175L381.132,46.256z
			"/>
		<path fill="#FDB913" d="M457.739,27.731c-18.04,0-31.18,13.397-31.18,30.915c0,15.761,11.744,29.681,31.18,29.681
			c16.898,0,30.387-12.877,30.387-30.561C488.126,42.354,477.969,27.731,457.739,27.731 M458.876,85.615
			c-17.247,0-23.556-16.809-23.556-29.773c0-19.179,11.821-25.396,20.929-25.396c16.728,0,23.121,15.588,23.121,30.04
			C479.37,77.734,469.389,85.615,458.876,85.615"/>
		<path fill="#FDB913" d="M576.289,74.407c-1.755,4.471-4.033,7.618-5.782,8.666c-1.398,0.79-3.237,1.144-10.682,1.144
			c-6.92,0-8.578-1.05-9.546-2.016c-1.574-1.666-1.842-3.945-1.842-9.461V42.267c0-9.194,0.179-10.595,5.341-11.032l2.106-0.175
			c0.522-0.354,0.352-1.931-0.174-2.187c-4.381,0.168-7.362,0.256-10.775,0.256c-3.5,0-6.475-0.088-11.385-0.256
			c-0.528,0.256-0.699,1.833-0.171,2.187l2.187,0.175c5.518,0.438,5.695,1.838,5.695,11.032v31.529
			c0,9.188-0.178,10.421-5.259,10.942l-2.623,0.261c-0.528,0.526-0.357,1.928,0.171,2.192c4.91-0.17,7.711-0.265,11.385-0.265h8.059
			c9.02,0,17.338,0.095,21.805,0.265c1.228-2.366,3.677-11.294,3.677-12.26C578.476,74.318,576.815,73.973,576.289,74.407"/>
		<path fill="#FDB913" d="M729.07,74.407c-2.279,4.556-4.637,7.618-6.218,8.497c-1.928,0.959-4.466,1.313-11.21,1.313
			c-7.708,0-9.541-0.965-10.594-2.016c-1.402-1.488-1.664-4.467-1.664-9.104V60.741c0-2.277,0.262-2.357,2.887-2.357h5.079
			c3.416,0,5.518,0.08,6.746,0.434c1.751,0.437,2.36,1.753,2.709,3.328l0.792,3.419c0.441,0.525,1.928,0.525,2.273-0.087
			c0-1.931-0.346-5.263-0.346-8.41c0-3.332,0.346-6.74,0.346-8.843c-0.346-0.614-1.832-0.614-2.273-0.09l-0.708,3.592
			c-0.433,2.187-1.042,2.715-2.093,3.064c-1.055,0.351-3.766,0.521-7.446,0.521h-5.079c-2.625,0-2.887,0-2.887-2.45v-17.52
			c0-3.318,0-3.499,2.626-3.499h6.308c3.85,0,6.654,0.09,8.487,0.528c4.556,1.136,5.345,4.202,6.657,8.322
			c0.438,0.524,1.841,0.348,2.192-0.172c-0.352-3.859-0.877-10.162-1.402-11.649c-1.052,0.256-6.214,0.256-11.82,0.256h-16.466
			c-3.59,0-6.569-0.088-10.331-0.256c-0.525,0.256-0.698,1.833-0.174,2.187l1.397,0.175c5.168,0.609,5.35,1.916,5.35,11.032v31.529
			c0,9.188-0.444,10.507-5.437,10.942l-2.89,0.261c-0.531,0.526-0.352,1.928,0.177,2.192c5.162-0.17,8.149-0.265,11.907-0.265h7.885
			c7.791,0,15.586,0.095,23.468,0.265c1.14-2.366,3.327-9.103,3.936-12.168C730.907,74.229,729.684,73.973,729.07,74.407"/>
		<path fill="#FDB913" d="M673.39,63.633c-5.167,0-9.979-0.084-12.526-0.264c-0.611,0.264-0.697,1.849,0,2.19l3.859,0.444
			c5.425,0.61,5.687,1.132,5.687,8.491v3.499c0,2.804-0.439,4.379-0.877,4.99c-0.958,1.493-4.204,2.631-9.628,2.631
			c-17.608,0-26.274-13.226-26.274-30.041c0-13.13,7.446-25.214,24.434-25.214c8.931,0,15.499,2.976,17.951,12.432
			c0.522,0.522,2.099,0.442,2.362-0.267c-0.789-5.253-1.315-9.802-1.315-12.693c-1.047,0.177-3.761-0.433-5.424-0.791
			c-1.49-0.352-6.134-1.31-11.12-1.31c-13.226,0-21.897,4.112-27.768,10.239c-5.425,5.783-7.877,13.316-7.877,20.761
			c0,7.708,2.803,14.623,8.058,19.876c6.74,6.836,16.287,9.72,26.707,9.72c4.73,0,11.035-1.049,15.676-2.276
			c1.664-0.436,3.239-0.79,4.286-0.79c0.357-0.262,0.357-0.783,0.088-1.044c-1.574-0.614-2.1-2.716-2.1-6.223v-4.897
			c0-4.468,0.091-6.923,3.766-7.363l1.407-0.174c0.608-0.529,0.526-1.832-0.095-2.19C679.78,63.549,676.804,63.633,673.39,63.633"/>
		<path fill="#FDB913" d="M623.037,74.407c-2.271,4.556-4.635,7.618-6.213,8.497c-1.931,0.959-4.466,1.313-11.209,1.313
			c-7.702,0-9.544-0.965-10.598-2.016c-1.404-1.488-1.665-4.467-1.665-9.104V60.741c0-2.277,0.261-2.357,2.893-2.357h5.079
			c3.412,0,5.517,0.08,6.742,0.434c1.751,0.437,2.369,1.753,2.711,3.328l0.794,3.419c0.435,0.525,1.923,0.525,2.277-0.087
			c0-1.931-0.354-5.263-0.354-8.41c0-3.332,0.354-6.74,0.354-8.843c-0.354-0.614-1.843-0.614-2.277-0.09l-0.706,3.592
			c-0.43,2.187-1.048,2.715-2.098,3.064c-1.051,0.351-3.767,0.521-7.443,0.521h-5.079c-2.632,0-2.893,0-2.893-2.45v-17.52
			c0-3.318,0-3.499,2.63-3.499h6.305c3.85,0,6.655,0.09,8.49,0.528c4.557,1.136,5.344,4.202,6.663,8.322
			c0.436,0.524,1.836,0.348,2.183-0.172c-0.347-3.859-0.873-10.162-1.397-11.649c-1.054,0.256-6.22,0.256-11.821,0.256h-16.468
			c-3.589,0-6.569-0.088-10.325-0.256c-0.528,0.256-0.703,1.833-0.181,2.187l1.406,0.175c5.156,0.609,5.34,1.916,5.34,11.032v31.529
			c0,9.188-0.438,10.507-5.437,10.942l-2.883,0.261c-0.523,0.526-0.353,1.928,0.176,2.192c5.16-0.17,8.144-0.265,11.903-0.265h7.887
			c7.792,0,15.586,0.095,23.465,0.265c1.139-2.366,3.328-9.103,3.941-12.168C624.882,74.229,623.658,73.973,623.037,74.407"/>
		<path fill="#FDB913" d="M423.772,73.097c-2.016,5.159-7.005,12.515-18.304,12.515c-1.513,0-2.974-0.155-4.417-0.383
			c-0.095,0.825-0.229,1.804-0.411,2.875c1.425,0.134,2.853,0.225,4.303,0.225c5.609,0,11.908-1.313,13.833-2.009
			c0.966-0.354,2.021-0.708,3.066-0.876c1.314-1.669,3.592-7.449,4.207-11.995C425.698,72.824,424.385,72.66,423.772,73.097"/>
	</g>
</g>
</svg>
